{"title":"In Your Eyes 2014 480p HDRip XviD titler","uid":10668569,"size":1312050902,"categoryP":"video","categoryS":"movies","magnet":"?xt=urn:btih:4cf74a36868ad94b9f1271a46b1b66111b3f1f42&amp;dn=In+Your+Eyes+2014+480p+HDRip+XviD+titler&amp;tr=udp%3A%2F%2Ftracker.openbittorrent.com%3A80&amp;tr=udp%3A%2F%2Fopen.demonii.com%3A1337&amp;tr=udp%3A%2F%2Ftracker.coppersurfer.tk%3A6969&amp;tr=udp%3A%2F%2Fexodus.desync.com%3A6969","seeders":1,"leechers":0,"uploader":"movieZ.freak","files":4,"time":1406838882,"description":"SOURCE: In Your Eyes 2014 720p WEB-DL x264 AAC - RARBG\n\n\n\n &lt;a href=&quot;\nhttp://www.imdb.com/title/tt2101569/&quot; rel=&quot;nofollow&quot; target=&quot;_NEW&quot;&gt;\nhttp://www.imdb.com/title/tt2101569/&lt;/a&gt;\n\n\n\n &lt;a href=&quot;\nhttp://www.rottentomatoes.com/m/in_your_eyes_2012/&quot; rel=&quot;nofollow&quot; target=&quot;_NEW&quot;&gt;\nhttp://www.rottentomatoes.com/m/in_your_eyes_2012/&lt;/a&gt;\n\n\n\n &lt;a href=&quot;\nhttp://en.wikipedia.org/wiki/In_Your_Eyes_%282014_film%29&quot; rel=&quot;nofollow&quot; target=&quot;_NEW&quot;&gt;\nhttp://en.wikipedia.org/wiki/In_Your_Eyes_%282014_film%29&lt;/a&gt;\n\n\n\n\n- SAMPLE: Yes\n\n\n- SUBTITLE: NO!\n\n\n- LANGUAGE / AUDIO: English\n\n\n\n\nSCREENSHOTS:\n-------------------    &lt;a href=&quot;\nhttp://someimage.com/LTCd&quot; rel=&quot;nofollow&quot; target=&quot;_NEW&quot;&gt;\nhttp://someimage.com/LTCd&lt;/a&gt;\n\n\n\n\nDIRECTOR: Brin Hill\n\n\n\nCAST: Zoe Kazan, Michael Stahl-David, Mark Feuerstein, Nikki Reed, Jennifer Grey, Steve Howey, Steve Harris,...\n\n\nPLOT:\n-----------\nIn the frozen East Coast winter, Rebecca is withering away in a life of cocktail parties and lonely nights as the sheltered, soft-spoken wife of a successful doctor. Across the country in sun-drenched, arid New Mexico, charismatic ex-con Dylan is struggling to find his footing and a fresh start. When these polar opposites realize they share an inexplicable connection, a unique metaphysical romance begins.\n\n\n************************************\n\n- Duration: 1h 45mn\n\n- Bit rate: 1499 Kbps\n\n- Res: 854 x 480\n\n- AR: 16:9\n\n- FPS: 23.976 fps\n\n- Audio: MP3, 2 channels, 128Kbps\n\n************************************\n\n\nGeneral\n--------------\nFormat : AVI\nFormat/Info : Audio Video Interleave\nFile size : 1.21 GiB\nDuration : 1h 45mn\nOverall bit rate : 1636 Kbps\nWriting library : VirtualDub build 35491\n\n\nVideo\n-------------\nFormat : MPEG-4 Visual\nFormat profile : Advanced Simple@L5\nFormat settings, BVOP : 2\nFormat settings, QPel : No\nFormat settings, GMC : No warppoints\nFormat settings, Matrix : Default (H.263)\nCodec ID : XVID\nCodec ID/Hint : XviD\nDuration : 1h 45mn\nBit rate : 1499 Kbps\nWidth : 854 pixels\nHeight : 480 pixels\nDisplay aspect ratio : 16:9\nFrame rate : 23.976 fps\nColor space : YUV\nChroma subsampling : 4:2:0\nBit depth : 8 bits\nScan type : Progressive\nCompression mode : Lossy\nBits/(Pixel*Frame) : 0.152\nStream size : 1.11 GiB (92%)\nWriting library : XviD 65\n\n\nAudio\n----------\nFormat : MPEG Audio\nFormat version : Version 1\nFormat profile : Layer 3\nMode : Joint stereo\nMode extension : MS Stereo\nCodec ID : 55\nCodec ID/Hint : MP3\nDuration : 1h 45mn\nBit rate mode : Constant\nBit rate : 128 Kbps\nChannel(s) : 2 channels\nSampling rate : 48.0 KHz\nCompression mode : Lossy\nStream size : 96.8 MiB (8%)\nAlignment : Split accross interleaves\nInterleave, duration : 42 ms (1.00 video frame)\nInterleave, preload duration : 500 ms\nWriting library : LAME3.99r\n","torrent":{"xt":"urn:btih:4cf74a36868ad94b9f1271a46b1b66111b3f1f42","amp;dn":"In+Your+Eyes+2014+480p+HDRip+XviD+titler","amp;tr":["udp%3A%2F%2Ftracker.openbittorrent.com%3A80","udp%3A%2F%2Fopen.demonii.com%3A1337","udp%3A%2F%2Ftracker.coppersurfer.tk%3A6969","udp%3A%2F%2Fexodus.desync.com%3A6969"],"infoHash":"4cf74a36868ad94b9f1271a46b1b66111b3f1f42","infoHashBuffer":{"type":"Buffer","data":[76,247,74,54,134,138,217,75,159,18,113,164,107,27,102,17,27,63,31,66]},"announce":[],"urlList":[]}}